<svg width="129" height="48" viewBox="0 0 129 48" fill="none" xmlns="http://www.w3.org/2000/svg">
<g style="mix-blend-mode:luminosity" clip-path="url(#clip0_6_660)">
<path d="M14.1807 13.1064V22.1942H4.76376V13.1064H0.292969V34.7997H4.76376V26.0071H14.1807V34.7997H18.6515V13.1064H14.1807Z" fill="#33475B"/>
<path d="M32.9597 27.7869C32.9597 28.6563 32.57 29.4901 31.8764 30.1049C31.1828 30.7196 30.242 31.065 29.2611 31.065C28.2801 31.065 27.3394 30.7196 26.6457 30.1049C25.9521 29.4901 25.5624 28.6563 25.5624 27.7869V18.4953H21.3216V27.7869C21.3216 29.6513 22.1573 31.4394 23.6448 32.7578C25.1323 34.0761 27.1498 34.8168 29.2534 34.8168C31.357 34.8168 33.3745 34.0761 34.862 32.7578C36.3495 31.4394 37.1852 29.6513 37.1852 27.7869V18.4953H32.9597V27.7869Z" fill="#33475B"/>
<path d="M64.3811 19.4529C64.3811 17.5484 65.8027 16.9446 67.3601 16.9446C68.6153 16.9446 70.2735 17.7911 71.3578 18.8181L74.1353 15.9176C72.7487 14.2558 69.9362 13.1065 67.634 13.1065C63.0339 13.1065 59.7066 15.4944 59.7066 19.4529C59.7066 26.7973 69.8354 24.4676 69.8354 28.5775C69.8354 29.8453 68.4466 30.9655 66.8563 30.9655C64.3482 30.9655 63.5356 29.8783 62.3834 28.729L59.3013 31.5693C61.2728 33.7145 63.7042 34.8036 66.6176 34.8036C70.9876 34.8036 74.5033 32.3866 74.5033 28.6086C74.5033 20.4547 64.3745 22.9882 64.3745 19.4529" fill="#33475B"/>
<path d="M127.042 31.3341C124.536 31.3341 123.824 30.3731 123.824 28.9015V22.3881H127.719V19.0877H123.824V14.7331L119.525 16.4435V29.7111C119.525 33.1047 122.166 34.815 125.789 34.815C126.358 34.8242 126.925 34.7839 127.485 34.6947L128.534 31.272C128.061 31.3011 127.518 31.3302 127.042 31.3302" fill="#33475B"/>
<path d="M49.1025 18.6049C47.0018 18.6049 45.5363 19.1446 44.1191 20.3774V13.2369H39.8717V26.4715C39.8717 31.4259 43.9132 34.8195 48.4541 34.8195C53.4922 34.8195 57.9236 31.3658 57.9236 26.7141C57.9236 22.1208 53.8449 18.6068 49.1025 18.6068V18.6049ZM49.0762 31.0318C48.1231 31.0318 47.1913 30.7813 46.3988 30.312C45.6063 29.8427 44.9887 29.1757 44.6239 28.3952C44.2592 27.6148 44.1638 26.756 44.3497 25.9275C44.5356 25.099 44.9946 24.3379 45.6686 23.7406C46.3425 23.1433 47.2012 22.7365 48.136 22.5717C49.0708 22.4069 50.0398 22.4915 50.9204 22.8148C51.8009 23.138 52.5536 23.6855 53.0831 24.3878C53.6126 25.0902 53.8952 25.916 53.8952 26.7607C53.8952 27.8935 53.3875 28.9799 52.4838 29.7809C51.58 30.5818 50.3543 31.0318 49.0762 31.0318Z" fill="#33475B"/>
<path d="M95.2208 26.5153C95.2208 21.8559 90.7982 18.4099 85.7513 18.4099C81.2104 18.4099 77.169 21.8035 77.169 26.758V40.0003H81.4163V32.8501C82.8314 34.0809 84.299 34.6226 86.3975 34.6226C91.1399 34.6226 95.2186 31.1106 95.2186 26.5153H95.2208ZM91.1991 26.4687C91.1991 27.3134 90.9164 28.1392 90.3869 28.8416C89.8574 29.544 89.1047 30.0914 88.2242 30.4147C87.3436 30.7379 86.3746 30.8225 85.4398 30.6577C84.505 30.4929 83.6464 30.0861 82.9724 29.4888C82.2984 28.8915 81.8395 28.1304 81.6535 27.3019C81.4676 26.4734 81.563 25.6146 81.9277 24.8342C82.2925 24.0538 82.9102 23.3867 83.7027 22.9174C84.4952 22.4481 85.4269 22.1976 86.38 22.1976C87.6581 22.1976 88.8838 22.6476 89.7876 23.4486C90.6913 24.2495 91.1991 25.3359 91.1991 26.4687Z" fill="#33475B"/>
<path d="M108.899 18.3496V14.6066C109.457 14.3756 109.93 14.0088 110.262 13.5489C110.594 13.089 110.772 12.555 110.774 12.009V11.9216C110.772 11.1587 110.429 10.4276 109.82 9.88807C109.212 9.34858 108.387 9.04458 107.526 9.04254H107.427C106.566 9.04458 105.742 9.34858 105.133 9.88807C104.524 10.4276 104.181 11.1587 104.179 11.9216V12.009C104.182 12.555 104.359 13.089 104.691 13.5489C105.023 14.0088 105.496 14.3756 106.054 14.6066V18.3496C104.449 18.5671 102.938 19.1565 101.673 20.0581L90.0765 12.0614C90.159 11.7976 90.2032 11.5256 90.2079 11.2519C90.2088 10.6095 89.9947 9.98128 89.5927 9.44673C89.1908 8.91217 88.619 8.49527 87.9497 8.24873C87.2804 8.00219 86.5436 7.93708 85.8326 8.06166C85.1215 8.18623 84.4681 8.49487 83.955 8.94857C83.4419 9.40226 83.0921 9.98063 82.9498 10.6105C82.8076 11.2404 82.8793 11.8936 83.1558 12.4873C83.4324 13.0811 83.9014 13.5889 84.5036 13.9464C85.1058 14.3039 85.814 14.4952 86.5388 14.496C87.1755 14.4939 87.8003 14.3432 88.3504 14.0591L99.7519 21.9257C98.7249 23.2989 98.1891 24.9146 98.2145 26.5619C98.2399 28.2091 98.8253 29.8113 99.8942 31.1591L96.4245 34.2343C96.146 34.1557 95.8559 34.1138 95.5636 34.11C94.9679 34.11 94.3856 34.2666 93.8903 34.5599C93.395 34.8532 93.009 35.2701 92.781 35.7579C92.553 36.2457 92.4934 36.7824 92.6096 37.3002C92.7258 37.818 93.0127 38.2937 93.4339 38.667C93.8551 39.0403 94.3918 39.2946 94.9761 39.3976C95.5603 39.5006 96.1659 39.4477 96.7163 39.2457C97.2666 39.0436 97.737 38.7015 98.068 38.2625C98.3989 37.8235 98.5756 37.3074 98.5756 36.7794C98.5716 36.5204 98.5243 36.2633 98.4354 36.0165L101.868 32.9743C102.988 33.7328 104.29 34.2544 105.672 34.4993C107.055 34.7441 108.482 34.7058 109.846 34.3871C111.209 34.0685 112.472 33.478 113.539 32.6607C114.605 31.8434 115.447 30.8209 116 29.6713C116.552 28.5217 116.801 27.2754 116.728 26.0275C116.654 24.7796 116.26 23.5631 115.575 22.4709C114.89 21.3786 113.932 20.4395 112.775 19.7253C111.618 19.0111 110.293 18.5405 108.899 18.3496ZM107.478 30.6621C106.538 30.6621 105.62 30.4152 104.839 29.9527C104.058 29.4902 103.45 28.8329 103.09 28.0638C102.731 27.2947 102.637 26.4484 102.82 25.632C103.003 24.8155 103.456 24.0655 104.12 23.4769C104.784 22.8883 105.63 22.4874 106.551 22.325C107.472 22.1626 108.427 22.2459 109.295 22.5645C110.163 22.8831 110.905 23.4225 111.426 24.1147C111.948 24.8069 112.227 25.6206 112.227 26.4531C112.227 27.5694 111.726 28.6399 110.836 29.4293C109.945 30.2186 108.737 30.6621 107.478 30.6621Z" fill="#FF7A59"/>
</g>
<defs>
<clipPath id="clip0_6_660">
<rect width="128.626" height="48" fill="white" transform="translate(0.292969)"/>
</clipPath>
</defs>
</svg>
